<svg viewBox="0 0 64 64" xmlns="http://www.w3.org/2000/svg"><path d="m22 60.3v-13.8l-10.3 7.6c2.9 2.7 6.4 4.8 10.3 6.2m20 0c3.9-1.4 7.4-3.5 10.3-6.2l-10.3-7.7zm-38.3-18.3c.3 1 .7 1.9 1.2 2.9l3.9-2.9zm51.5 0 3.9 2.9c.4-.9.8-1.9 1.2-2.9z" fill="#2a5f9e"/><path d="m23.5 38h-20.9c.3 1.4.7 2.7 1.1 4h5.1l-3.9 2.9c.8 1.7 1.7 3.2 2.8 4.7l10.3-7.6h4v2l-11.7 8.6 1.4 1.4 10.3-7.5v13.8c1.3.5 2.6.8 4 1.1v-23.4zm37.9 0h-23.4v23.4c1.4-.3 2.7-.7 4-1.1v-13.8l10.3 7.5c1.4-1.3 2.6-2.7 3.8-4.2l-10.7-7.8h6.8l6.1 4.5c.3-.5.6-1.1.8-1.6l-3.9-2.9h5.1c.4-1.3.8-2.6 1.1-4" fill="#fff"/><path d="m7.7 49.6c.8 1.1 1.6 2.1 2.5 3.1l11.8-8.6v-2h-4zm37.8-7.6 10.7 7.8c.4-.5.7-1 1.1-1.5.1-.1.1-.2.2-.2.3-.5.7-1.1 1-1.6l-6.3-4.5z" fill="#ed4c5c"/><path d="m42 3.7v13.8l10.3-7.6c-2.9-2.7-6.4-4.8-10.3-6.2m-20 0c-3.9 1.4-7.4 3.5-10.3 6.2l10.3 7.7zm38.3 18.3c-.3-1-.7-1.9-1.2-2.9l-3.9 2.9zm-51.5 0-3.9-2.9c-.4 1-.8 1.9-1.2 2.9z" fill="#2a5f9e"/><path d="m40.5 26h20.8c-.3-1.4-.7-2.7-1.1-4h-5.1l3.9-2.9c-.8-1.7-1.7-3.2-2.8-4.7l-10.2 7.6h-4v-2l11.7-8.6-1.4-1.4-10.3 7.5v-13.8c-1.3-.5-2.6-.8-4-1.1v23.4zm-37.9 0h23.4v-23.4c-1.4.3-2.7.7-4 1.1v13.8l-10.3-7.5c-1.4 1.3-2.6 2.7-3.8 4.2l10.7 7.8h-6.8l-6.1-4.5c-.3.5-.6 1.1-.8 1.6l3.9 2.9h-5.1c-.4 1.3-.8 2.6-1.1 4" fill="#fff"/><g fill="#ed4c5c"><path d="m56.3 14.4c-.8-1.1-1.6-2.1-2.5-3.1l-11.8 8.6v2h4zm-37.8 7.6-10.6-7.8c-.4.5-.7 1-1.1 1.5-.1.1-.1.2-.2.2-.3.5-.7 1.1-1 1.6l6.1 4.5z"/><path d="m61.4 26h-23.4v-23.4c-1.9-.4-3.9-.6-6-.6s-4.1.2-6 .6v23.4h-23.4c-.4 1.9-.6 3.9-.6 6s.2 4.1.6 6h23.4v23.4c1.9.4 3.9.6 6 .6s4.1-.2 6-.6v-23.4h23.4c.4-1.9.6-3.9.6-6s-.2-4.1-.6-6"/></g></svg>