<svg viewBox="0 0 72 72" xmlns="http://www.w3.org/2000/svg"><path d="m41.972 26.9445c0 1.1045-.8965 2-2 2s-2-.8955-2-2c0-1.1035.8965-2 2-2s2 .8965 2 2"/><path d="m33.972 26.9445c0 1.1045-.8965 2-2 2s-2-.8955-2-2c0-1.1035.8965-2 2-2s2 .8965 2 2"/><path d="m35.9719 36.947c-1.1519 0-2.3038-.2862-3.4473-.8579-.4942-.2471-.6943-.8477-.4473-1.3418.2466-.4937.8462-.6944 1.3418-.4473 1.7178.8594 3.3877.8594 5.1055 0 .4946-.2471 1.0947-.0464 1.3418.4473.2471.4941.0469 1.0947-.4473 1.3418-1.1435.5717-2.2954.8579-3.4472.8579z"/><path d="m35.9717 43.4785c-6.8037 0-12.3389-6.8066-12.3389-15.1733 0-.2222.0039-.4434.0127-.6626l1.9981.0752c-.0069.1948-.0108.3906-.0108.5874 0 7.2641 4.6377 13.1733 10.3389 13.1733s10.3388-5.9092 10.3388-13.1733c0-.1983-.0039-.396-.0097-.5918l1.998-.0664c.0078.2182.0117.4375.0117.6582 0 8.3667-5.5351 15.1733-12.3388 15.1733z"/><path d="m48.5029 19.5947c-.0009 0-.0009 0-.0019 0l-25.6602-.0405c-.2304-.0005-.4541-.0806-.6328-.2271-.1504-.124-.9033-.7924-.8867-1.7851.0029-.1841.0332-.4043.124-.6406-.5224-.4561-1.082-1.1133-1.1699-1.8814-.0674-.5957.1523-1.1684.6201-1.6123 1.0254-.9756 7.9131-4.3369 14.8135-5.0991 2.6387-.2886 9.1963-.585 13.1221 2.9575.3349.2588 2.2597 1.8677 2.0234 3.6875-.0596.4585-.2744 1.0405-.8857 1.564.2939.5083.5078 1.1406.3232 1.769-.1104.376-.4619 1.043-1.5772 1.2852-.0693.0151-.1406.0229-.2119.0229zm-25.1377-2.0395 24.9131.039c-.1123-.205-.3144-.4736-.4824-.6421-.2344-.2343-.3379-.5698-.2754-.8955.0625-.3256.2832-.5996.5879-.7304.2168-.0928.7246-.3404.7627-.6294.0654-.4976-.7441-1.4405-1.3281-1.9024-2.3584-2.125-6.6768-3.0434-11.6153-2.4975-6.7529.7456-13.0283 4.0371-13.6455 4.5527.1094.2427.6114.7061 1.0694.9771.2861.1689.4697.4687.4892.8003.0205.3315-.126.6513-.3887.8535-.038.0288-.0664.0542-.0869.0747z"/><path d="m35.8184 10.3027c-.5528 0-1-.4477-1-1v-3.0854c0-.5523.4472-1 1-1 .5527 0 1 .4477 1 1v3.0854c0 .5523-.4473 1-1 1z"/><path d="m47.1621 28.6899c-.4355 0-.8545-.1489-1.2256-.4384-.6826-.5323-1.1474-1.5537-1.459-2.5791-.1045.0566-.2138.1054-.3291.146-1.4677.5141-3.247-.6382-4.4902-1.7007-.0547.0508-.1103.0952-.166.1347-1.0518.7452-2.9248.0518-4.6611-.9296-.0323.0346-.0655.0659-.0997.0952-.3623.3134-1.1757 1.0112-4.9433-1.3072-1.0235 2.1202-3.0215 5.8184-4.7813 6.5015-.3525.1362-.749.064-1.0302-.1875-3.9297-3.5239-.3711-10.0405-.2178-10.3164.1767-.3169.5107-.5137.874-.5137h23.0615c.2784 0 .544.1162.7334.3203 2.3526 2.5371 1.7813 6.7232.8233 8.918-.5156 1.1816-1.1446 1.8018-1.8711 1.8447-.0733.0083-.1455.0122-.2178.0122zm.0234-2.0004c.004.0024.0088.0043.0137.0063.0459-.0063.0508-.0156.0977-.0156-.0401 0-.0781.0034-.1114.0093zm-2.2841-5.0088c.5107 0 .9414.3857.9941.8955.1836 1.7466.7549 3.6342 1.2051 4.0517.2998-.4336.8418-1.687.956-3.3457.0616-.8984.0235-2.5034-.833-3.6875h-21.9716c-.5948 1.2803-1.9141 4.6558-.4502 6.7637 1.0117-1.021 2.5761-3.7222 3.6513-6.1157.1201-.2681.3526-.4693.6348-.5508.2812-.082.5859-.0347.8301.1269 1.083.7183 2.2715 1.3736 3.0576 1.7081.0234-.252.1416-.4927.3428-.667.3398-.2945.8359-.3247 1.207-.0757 1.3418.8921 2.9101 1.6489 3.6309 1.7778-.0079-.0366-.0167-.0766-.0284-.1216-.1133-.4433.0889-.9067.4903-1.1255.4013-.2197.9013-.1372 1.2119.1978 1.331 1.4351 3.1035 2.604 3.6562 2.4185.1143-.0406.3496-.3687.418-1.3223.0371-.5171.4629-.9199.9805-.9282z"/><g style="fill:none;stroke:#000;stroke-linecap:round;stroke-linejoin:round;stroke-miterlimit:10;stroke-width:2"><path d="m42.2303 50.8024c.12-.06.23-.12.33-.19.4-.27.71-.61.93-1.01.21-.37.34-.78.37-1.2.06-.54-.04-1.1-.3-1.62l-.3-.77"/><path d="m42.2303 50.8024c-.27.14-.56.23-.85.27-.19.04-.39.06-.58.04-1.06-.02-2.08-.62-2.6-1.64l-.48-1.09"/><path d="m50.9303 46.5424c-1.45-.97-3.4-1.59-6.03-1.59-.56.37-1.1.72-1.64 1.05-1.9 1.17-3.69 2.03-5.54 2.37-.56.11-1.12.16-1.69.17h-.13c-2.7351-.0272-5.2076-1.2272-7.9897-3.0133"/><path d="m42.6503 50.7624.56.44c2.87 3.06.43 6.44.43 6.44s-3.56-1.91-2.45-5.91l.19-.64"/><path d="m29.463 50.111c.3957.3631.8557.7006 1.3904.9935s1.144.5412 1.8384.7257c.2081.0553.4237.1048.6474.1481 1.8713.3624 4.2969.2876 7.4412-.526"/><path d="m43.4703 49.5624.02.04.34.59c2.28 3.89 6.18 3.07 6.18 3.07s-.61-3.96-5.1-4.71l-1.04-.15"/></g><path d="m25.6602 63.7158c-3.4844 0-7.1836-1.0976-10.0147-3.2539-.4746-.3623-.9297-.7471-1.3525-1.1445-.2871-.2715-.5606-.5469-.8184-.8281-3.2402-3.5264-4.4668-8.1954-3.2793-12.4883.6123-2.2158 2.0586-4.0635 4.0723-5.2022 2.0488-1.1592 4.4297-1.4463 6.7109-.8134l.3096.0839c2.1894.5791 7.8701 2.083 9.2422 11.2442 2.0898-.2569 4.1474.4951 5.2636 2.0068 1.1954 1.6182 1.0997 3.7012-.2626 5.7158-.4766.7061-1.1124 1.4073-1.8897 2.085-1.9961 1.7393-4.9053 2.5947-7.9814 2.5947zm-8.8018-4.8457c4.5586 3.4737 11.9326 3.8262 15.4687.7432.6465-.5635 1.167-1.1348 1.5479-1.6973.8711-1.289.9814-2.499.3096-3.4072-.8135-1.1006-2.5869-1.5352-4.2178-1.0391-.2861.0879-.5967.042-.8438-.122-.249-.1651-.4111-.4327-.4423-.7295-.9239-8.7686-5.8155-10.0625-7.9043-10.6153l-.334-.0898c-1.7647-.4912-3.6074-.2686-5.1895.626-1.5488.8759-2.6601 2.2949-3.1299 3.9951-1.0019 3.623.0538 7.5869 2.8243 10.6015.2265.2461.4648.4883.7168.7256.372.3496.7734.6895 1.1943 1.0088z"/><path d="m58.0847 40.0027-.4802-.8989c-1.9641-5.4658 3.7037-7.2124 3.7037-7.2124s3.9546 4.359-.4411 8.0562l-.7299.5859" style="fill:none;stroke:#000;stroke-linecap:round;stroke-linejoin:round;stroke-miterlimit:10;stroke-width:2"/><path d="m60.275 44.1946-3.8708 14.9676c-.2929 1.1327-1.4505 1.8146-2.5832 1.5217-.5615-.1452-1.0243-.5128-1.297-.9758-.2728-.4631-.3699-1.0459-.2247-1.6075l3.8707-14.9676" style="fill:none;stroke:#000;stroke-linecap:round;stroke-linejoin:round;stroke-miterlimit:10;stroke-width:2"/><path d="m60.275 44.1946.8788-3.3982-1.0166-.2629-2.0525-.5308-1.0359-.2679-.8788 3.3982z" style="fill:none;stroke:#000;stroke-linecap:round;stroke-linejoin:round;stroke-miterlimit:10;stroke-width:2"/></svg>