<svg viewBox="0 0 64 64" xmlns="http://www.w3.org/2000/svg"><path d="m2 32c0 5.9 1.7 11.4 4.6 16h50.7c2.9-4.6 4.6-10.1 4.6-16s-1.7-11.4-4.6-16h-50.7c-2.9 4.6-4.6 10.1-4.6 16z" fill="#ffce31"/><path d="m57.4 16c-5.3-8.4-14.7-14-25.4-14s-20.1 5.6-25.4 14zm-50.8 32c5.3 8.4 14.7 14 25.4 14s20.1-5.6 25.4-14z" fill="#ed4c5c"/><path d="m9.2 28.7h3.2v1.8h-3.2zm0 13.2h3.3v1.7h-3.3z" fill="#c8b100"/><path d="m8.9 39.1c-.3.2-.5.4-.5.5s.1.2.3.3.4.3.3.5c.2-.2.3-.4.3-.6 0-.3-.2-.6-.4-.7" fill="#ed4c5c"/><path d="m9.7 30.5h2.3v11.4h-2.3z" fill="#fff"/><g fill="#ed4c5c"><path d="m14.4 34.7c-.5-.2-1.4-.4-2.4-.4-.3 0-.7 0-1.1.1-1.4.2-2.5.8-2.4 1.2l-.5-1.1c-.1-.5 1.1-1.1 2.6-1.4.5-.1 1-.1 1.4-.1 1 0 1.9.1 2.4.3z"/><path d="m9.7 36.2c-.6 0-1.1-.2-1.1-.5 0-.2.2-.5.6-.7h.6zm2.3-.9c.4.1.7.2.9.3.1.1-.3.5-.9.8z"/><path d="m8.2 38.4c-.1-.2.6-.6 1.5-.9.4-.1.7-.3 1.2-.5 1.2-.5 2.2-1.2 2-1.4l.2 1.2c.1.2-.7.8-1.9 1.4-.4.2-1.1.5-1.5.6-.7.2-1.3.6-1.3.7z"/></g><path d="m30.7 28.7h3.2v1.8h-3.2zm-.1 13.2h3.3v1.7h-3.3z" fill="#c8b100"/><path d="m34.2 39.1c.3.2.5.4.5.5s-.1.2-.3.3c-.2.2-.4.5-.3.6-.2-.2-.3-.4-.3-.6 0-.4.2-.7.4-.8" fill="#ed4c5c"/><path d="m31.1 30.5h2.3v11.4h-2.3z" fill="#fff"/><g fill="#ed4c5c"><path d="m28.7 34.7c.5-.2 1.4-.4 2.4-.4.3 0 .7 0 1.1.1 1.4.2 2.5.8 2.4 1.2l.5-1.2c.1-.5-1.1-1.1-2.6-1.4h-1.4c-1 0-1.9.1-2.4.3z"/><path d="m33.4 36.2c.6 0 1.1-.2 1.1-.5 0-.2-.2-.5-.6-.7h-.6zm-2.3-.9c-.4.1-.7.2-.9.3-.1.1.3.5.9.8z"/><path d="m34.9 38.4c.1-.2-.6-.6-1.5-.9-.4-.1-.7-.3-1.2-.5-1.2-.5-2.2-1.2-2-1.4l-.2 1.2c-.1.2.7.8 1.9 1.4.4.2 1.1.5 1.5.6.7.2 1.3.7 1.2.8zm-13.4-16.1c1.9 0 5.8.4 7.2 1.8-1.5 3.6-3.9 2.1-7.2 2.1-3.2 0-5.7 1.5-7.2-2.1 1.4-1.4 5.2-1.8 7.2-1.8"/></g><path d="m26.4 26.3c-1.2-.7-3-.8-4.9-.8s-3.7.2-4.9.8l.4 1.7c1.1.3 2.7.5 4.5.5s3.3-.2 4.5-.5zm1.7-4.3c-.4-.3-1.2-.6-1.9-.6-.3 0-.6 0-.9.1 0 0-.6-.8-2-.8-.5 0-.9.1-1.3.3v-.1c-.1-.2-.3-.4-.5-.4s-.5.3-.5.5v.1c-.4-.2-.8-.3-1.3-.3-1.4 0-2 .9-2 .8-.3-.1-.6-.1-.9-.1-4.6 0-2.3 3.1-2.3 3.1l.5-.6c-1.1-1.4-.1-2.2 1.9-2.2.3 0 .5 0 .7.1-.7 1 .6 1.9.6 1.9l.3-.5c-.7-.5-.8-2.2 1.2-2.2.5 0 .9.1 1.3.4 0 .1-.1 1.5-.2 1.7l.8.7.8-.7c-.1-.3-.2-1.6-.2-1.7.3-.2.8-.4 1.3-.4 2.1 0 2.1 1.7 1.2 2.2l.3.5s1.1-.9.6-1.9c.2 0 .5-.1.7-.1 2.4 0 2.5 1.8 1.9 2.2l.4.6c-.2 0 .9-1.4-.5-2.6" fill="#c8b100"/><path d="m20.9 20.1c0-.3.3-.6.6-.6.4 0 .6.3.6.6s-.3.6-.6.6-.6-.3-.6-.6" fill="#005bbf"/><path d="m21.3 18.4v.3h-.3v.3h.3v1h-.4v.3h1.2l.1-.2-.1-.1h-.4v-1h.3v-.3h-.3v-.3z" fill="#c8b100"/><path d="m21.5 28.3c-1.6 0-3-.2-4.1-.5 1.1-.3 2.5-.5 4.1-.5s3 .2 4.1.5c-1 .3-2.5.5-4.1.5" fill="#ed4c5c"/><path d="m21.6 45.6c-1.9 0-3.7-.5-5.3-1.2-1.2-.6-1.9-1.7-1.9-3v-4.8h14.4v4.8c0 1.3-.8 2.5-1.9 3-1.6.8-3.4 1.2-5.3 1.2m-.1-17h7.2v8h-7.2z" fill="#fff"/><path d="m21.6 41.4c0 1.9-1.6 3.4-3.6 3.4s-3.6-1.5-3.6-3.4v-4.8h7.2z" fill="#ed4c5c"/><path d="m15.9 44.2c.2.1.5.3.9.4v-8.2h-.8zm-1.6-2.9c0 1 .4 1.8.8 2.2v-7.1h-.8z" fill="#c8b100"/><path d="m17.5 44.8h.8v-8.4h-.8z" fill="#c7b500"/><path d="m19.1 44.6c.3-.1.7-.3.9-.4v-7.8h-.8z" fill="#c8b100"/><path d="m14.3 28.6h7.2v8h-7.2z" fill="#ed4c5c"/><path d="m20.8 43.5c.4-.3.7-1 .8-1.8v-5.2h-.8z" fill="#c8b100"/><path d="m28.8 36.6v4.8c0 1.9-1.6 3.4-3.6 3.4s-3.6-1.5-3.6-3.4v-4.8zm-2.6-6.6c.3.6.3 2.1-.6 1.8.2.1.3.8.6 1.2.5.6 1.1.1 1-.6-.2-1.1-.1-1.8.1-2.9 0 .1.5.1.7-.1-.1.3-.2.7 0 .7-.2.3-.7.8-.8 1.1-.1.7 1 2-.2 2.3-.8.2-.3.8 0 1.1 0 0-.4 1.3-.2 1.2-.8.3-.6-.4-.6-.4.4-1.2-.7-1.3-.6-1.5-1-.1.1.9-.8.9-.2 0-.6.2-.6.2-1.1-.1-.5-1.1-.1-1 .3.1.6.6.6-.1 0 0-.5-.8.8-.8-.5 0-.8-.4-1-.9-.2.1-.5.6-1.6.7 0 0-.3-1.1 0-.9.4.2.6.2 1-.2-.2-.3-1.4-.7-1.2-1.4 0-.2.6-.5.6-.5-.1.5.2 1 .8 1 .8.1.5-.2.6-.4s.7.1.5-.4c0-.1-.7-.2-.5-.5.4-.5 1-.1 1.5.4m-4.6 14.6-.2-.5.2-.6.2.6z" fill="#ed4c5c"/><path d="m16.5 30.3v.5h.2v.4h-.5v1h.3v2.2h-.6v1.1h4.1v-1.1h-.5v-2.2h.2v-1h-.5v-.4h.3v-.5h-1v.5h.2v.4h-.5v-1.2h.3v-.5h-1.1v.5h.3v1.2h-.5v-.4h.2v-.5zm11.3 12.3v-5h-5.2v5l2.4 1.1h.3zm-2.8-4.6v1.7l-1.7-1.7zm-2.1.1 2 2-2 2zm.2 4.4 1.9-1.9v2.8zm2.2.8v-2.8l1.9 1.9zm2.1-1.2-2-2 2-2zm-2.1-4.1h1.7l-1.7 1.7z" fill="#c8b100"/><path d="m19.2 36.5c0-1.5 1-2.6 2.3-2.6s2.3 1.2 2.3 2.6-1 2.6-2.3 2.6-2.3-1.1-2.3-2.6" fill="#ed4c5c"/><path d="m19.9 36.5c0-1.1.7-1.9 1.6-1.9s1.6.9 1.6 1.9c0 1.1-.7 1.9-1.6 1.9-.8.1-1.6-.8-1.6-1.9" fill="#005bbf"/><path d="m20.8 35.2-.4 1.1.3.1-.2.4h.6l-.2-.4.3-.1zm1.5 0-.4 1.1.3.1-.2.4h.6l-.1-.4.3-.1zm-.7 1.3-.5 1.1.3.1-.1.4h.5l-.1-.4.3-.1z" fill="#c8b100"/></svg>